<svg width="53" height="53" viewBox="0 0 53 53" fill="none" xmlns="http://www.w3.org/2000/svg">
<path d="M26.5 4.96146C21.2562 4.96167 16.1837 6.82775 12.1899 10.2258C8.19615 13.6238 5.5418 18.3321 4.70182 23.5081C3.86185 28.6841 4.89104 33.9902 7.60527 38.4768C10.3195 42.9634 14.5416 46.3379 19.5162 47.9963C20.6203 48.1896 21.0344 47.5271 21.0344 46.9474C21.0344 46.4229 21.0068 44.6838 21.0068 42.8344C15.4583 43.8557 14.0229 41.4818 13.5812 40.2396C13.0912 39.0315 12.3143 37.9609 11.3177 37.1203C10.5448 36.7062 9.44061 35.6849 11.2901 35.6573C11.9963 35.734 12.6736 35.9797 13.2646 36.3737C13.8557 36.7677 14.343 37.2984 14.6854 37.9208C14.9874 38.4634 15.3936 38.9411 15.8805 39.3264C16.3675 39.7118 16.9257 39.9972 17.5232 40.1665C18.1207 40.3357 18.7457 40.3854 19.3624 40.3127C19.9791 40.24 20.5754 40.0463 21.1171 39.7427C21.2127 38.62 21.7131 37.5703 22.525 36.7891C17.6114 36.237 12.4771 34.3323 12.4771 25.8855C12.446 23.6907 13.2559 21.5673 14.7406 19.9506C14.0655 18.0431 14.1445 15.9497 14.9614 14.0985C14.9614 14.0985 16.8109 13.5188 21.0344 16.362C24.6478 15.3682 28.4626 15.3682 32.076 16.362C36.2994 13.4912 38.1489 14.0985 38.1489 14.0985C38.966 15.9497 39.045 18.0431 38.3698 19.9506C39.8589 21.5645 40.6695 23.6898 40.6333 25.8855C40.6333 34.3599 35.4713 36.237 30.5578 36.7891C31.0848 37.3233 31.4907 37.9646 31.7479 38.6695C32.0051 39.3745 32.1076 40.1265 32.0484 40.8745C32.0484 43.8282 32.0208 46.2021 32.0208 46.9475C32.0208 47.5272 32.4349 48.2172 33.539 47.9964C38.5048 46.3244 42.7148 42.9421 45.4175 38.4531C48.1201 33.9642 49.1396 28.6609 48.2938 23.4899C47.448 18.3189 44.792 13.6167 40.8 10.2228C36.808 6.82893 31.7397 4.96418 26.5 4.96146Z" fill="white"/>
</svg>
